<svg version="1.2" xmlns="http://www.w3.org/2000/svg" viewBox="0 0 1396 1396" width="1396" height="1396">
	<title>11594265</title>
	<style>
		tspan { white-space:pre } 
		.s0 { fill: #020216 } 
		.s1 { fill: #0000ff } 
	</style>
	<g id="OBJECTS">
		<g id="&lt;Group&gt;">
			<g id="&lt;Group&gt;">
				<path id="&lt;Path&gt;" class="s0" d="m465.1 742.7l316.2-196.9c61.3-38.2 148.9-1.9 148.9 61.7 0 24.3-13.8 47.2-37.3 61.8l-371.6 231.3c-23.2 14.4-56.1 0.7-56.1-23.3z"/>
				<path id="&lt;Path&gt;" class="s1" d="m502.5 995.3l278.8 173.5c61.3 38.2 148.9 1.9 148.9-61.7 0-24.3-13.8-47.2-37.3-61.8l-427.9-266.3v154.1c0 24.4 13.9 47.5 37.5 62.2z"/>
				<path id="&lt;Path&gt;" class="s0" d="m465.1 489.5l316.2-196.9c61.3-38.2 148.9-1.9 148.9 61.7 0 24.3-13.8 47.2-37.3 61.8l-371.6 231.3c-23.2 14.4-56.1 0.8-56.1-23.3z"/>
				<path id="&lt;Path&gt;" class="s1" d="m502.5 705.8l278.8 173.5c61.3 38.2 148.9 1.9 148.9-61.7 0-24.3-13.8-47.2-37.3-61.8l-427.9-266.4v154.1c0 24.5 13.9 47.6 37.5 62.3z"/>
			</g>
			<g id="&lt;Group&gt;">
			</g>
		</g>
	</g>
</svg>