<svg version="1.2" xmlns="http://www.w3.org/2000/svg" viewBox="0 0 2000 2000" width="2000" height="2000">
	<title>11594265</title>
	<style>
		tspan { white-space:pre } 
		.s0 { fill: #f59421 } 
		.s1 { fill: #9ac63f } 
	</style>
	<g id="OBJECTS">
		<g id="&lt;Group&gt;">
			<g id="&lt;Group&gt;">
				<path id="&lt;Path&gt;" class="s0" d="m764.1 1012.1l321.3-200c62.3-38.8 151.2-1.9 151.2 62.7 0 24.7-14 48-37.8 62.8l-377.6 235c-23.5 14.7-57 0.8-57-23.7z"/>
				<path id="&lt;Path&gt;" class="s1" d="m802.1 1268.9l283.3 176.3c62.3 38.7 151.2 1.9 151.2-62.8 0-24.7-14-47.9-37.8-62.7l-434.8-270.7v156.6c0 24.9 14.1 48.3 38.1 63.3z"/>
				<path id="&lt;Path&gt;" class="s0" d="m764.1 754.9l321.3-200.1c62.3-38.8 151.2-1.9 151.2 62.8 0 24.7-14 47.9-37.8 62.7l-377.6 235c-23.5 14.7-57 0.8-57-23.6z"/>
				<path id="&lt;Path&gt;" class="s1" d="m802.1 974.7l283.3 176.3c62.3 38.8 151.2 1.9 151.2-62.8 0-24.6-14-47.9-37.8-62.7l-434.8-270.6v156.5c0 24.9 14.1 48.4 38.1 63.3z"/>
			</g>
			<g id="&lt;Group&gt;">
			</g>
		</g>
	</g>
</svg>