<svg version="1.2" xmlns="http://www.w3.org/2000/svg" viewBox="0 0 1700 460" width="1700" height="460">
	<title>11594265</title>
	<style>
		tspan { white-space:pre } 
		.s0 { fill: #f59421 } 
		.s1 { fill: #9ac63f } 
		.t2 { font-size: 133px;line-height: 122px;fill: #9ac63f;font-weight: 900;font-family: "Montserrat-Black", "Montserrat" } 
		.t3 { font-size: 133px;line-height: 122px;fill: #020216;font-weight: 500;font-family: "Montserrat-Medium", "Montserrat" } 
		.t4 { font-size: 50px;fill: #000000;font-weight: 400;font-family: "Montserrat-Regular", "Montserrat" } 
	</style>
	<g id="OBJECTS">
		<g id="&lt;Group&gt;">
			<g id="&lt;Group&gt;">
				<path id="&lt;Path&gt;" class="s0" d="m91 232.1l105.4-65.6c20.4-12.7 49.5-0.6 49.5 20.6 0 8.1-4.6 15.7-12.4 20.6l-123.7 77c-7.8 4.8-18.7 0.2-18.7-7.8z"/>
				<path id="&lt;Path&gt;" class="s1" d="m103.5 316.2l92.9 57.8c20.4 12.7 49.5 0.7 49.5-20.5 0-8.1-4.6-15.8-12.4-20.6l-142.5-88.7v51.3c0 8.2 4.6 15.8 12.5 20.7z"/>
				<path id="&lt;Path&gt;" class="s0" d="m91 147.8l105.4-65.6c20.4-12.7 49.5-0.6 49.5 20.6 0 8.1-4.6 15.7-12.4 20.5l-123.7 77.1c-7.8 4.8-18.7 0.2-18.7-7.8z"/>
				<path id="&lt;Path&gt;" class="s1" d="m103.5 219.8l92.9 57.8c20.4 12.7 49.5 0.6 49.5-20.6 0-8.1-4.6-15.7-12.4-20.5l-142.5-88.7v51.3c0 8.1 4.6 15.8 12.5 20.7z"/>
			</g>
			<g id="&lt;Group&gt;">
				<text id="EXCELCONNECT" style="transform: matrix(1.251,0,0,1.251,967.131,269)" >
					<tspan x="-529.5" y="0" class="t2">E</tspan><tspan  y="0" class="t2">X</tspan><tspan  y="0" class="t2">C</tspan><tspan  y="0" class="t2">E</tspan><tspan  y="0" class="t2">L</tspan><tspan  y="0" class="t3">C</tspan><tspan  y="0" class="t3">O</tspan><tspan  y="0" class="t3">N</tspan><tspan  y="0" class="t3">N</tspan><tspan  y="0" class="t3">E</tspan><tspan  y="0" class="t3">C</tspan><tspan  y="0" class="t3">T</tspan><tspan  y="0" class="t3">
</tspan>
				</text>
				<text id="therapy brought to you.........." style="transform: matrix(1.082,0,0,1.082,929.009,329.537)" >
					<tspan x="-572.1" y="0" class="t4" dx="0" >t</tspan><tspan  y="0" class="t4" dx="0" >h</tspan><tspan  y="0" class="t4" dx="0" >e</tspan><tspan  y="0" class="t4" dx="0" >r</tspan><tspan  y="0" class="t4" dx="0" >a</tspan><tspan  y="0" class="t4" dx="0" >p</tspan><tspan  y="0" class="t4" dx="0" >y</tspan><tspan  y="0" class="t4" dx="0" > </tspan><tspan  y="0" class="t4" dx="0" >b</tspan><tspan  y="0" class="t4" dx="0" >r</tspan><tspan  y="0" class="t4" dx="0" >o</tspan><tspan  y="0" class="t4" dx="0" >u</tspan><tspan  y="0" class="t4" dx="0" >g</tspan><tspan  y="0" class="t4" dx="0" >h</tspan><tspan  y="0" class="t4" dx="0" >t</tspan><tspan  y="0" class="t4" dx="0" > </tspan><tspan  y="0" class="t4" dx="0" >t</tspan><tspan  y="0" class="t4" dx="0" >o</tspan><tspan  y="0" class="t4" dx="0" > </tspan><tspan  y="0" class="t4" dx="0" >y</tspan><tspan  y="0" class="t4" dx="0" >o</tspan><tspan  y="0" class="t4" dx="0" >u</tspan><tspan  y="0" class="t4" dx="0" >.</tspan><tspan  y="0" class="t4" dx="0" >.</tspan><tspan  y="0" class="t4" dx="0" >.</tspan><tspan  y="0" class="t4" dx="0" >.</tspan><tspan  y="0" class="t4" dx="0" >.</tspan><tspan  y="0" class="t4" dx="0" >.</tspan><tspan  y="0" class="t4" dx="0" >.</tspan><tspan  y="0" class="t4" dx="0" >.</tspan><tspan  y="0" class="t4" dx="0" >.</tspan><tspan  y="0" class="t4" dx="0" >.</tspan><tspan  y="0" class="t4" dx="0" >
</tspan>
				</text>
			</g>
		</g>
	</g>
</svg>